<svg xmlns="http://www.w3.org/2000/svg" title="Seidr" width="500" height="195" viewBox="0 0 784.6 306.7"><defs><linearGradient id="A" x1="73" y1="272.07" x2="73" y2="88.67" gradientUnits="userSpaceOnUse"><stop offset="0" stop-color="#764c9f"/><stop offset="1" stop-color="#6979bb"/></linearGradient><linearGradient id="B" x1="239.34" y1="271.48" x2="239.34" href="#A"/><linearGradient id="C" x1="527.7" x2="527.7" y2="4" href="#A"/><linearGradient id="D" x1="718.57" y1="268.55" x2="718.57" href="#A"/><linearGradient id="E" x1="380.41" y1="310.68" x2="380.41" y2="49.43" href="#A"/></defs><g transform="translate(-4 -4)"><path d="M107,143.6a34.8,34.8,0,0,0,15.1-7.8c5.4-4.7,8-9.8,8-15.5,0-9-4.9-16.5-14.8-22.6s-22.5-9-37.7-9c-19.8,0-35.6,4-47.5,12s-18.8,19.8-18.8,34c0,11.4,5.2,21.6,15.4,30.7a96.6,96.6,0,0,0,16.6,11.9c6.3,3.6,11.5,6.3,15.4,8.1l7.3,3.3,6.4,2.7,13.2,5.8c18,8.2,27,17.7,27,28.4s-3.5,16.5-10.5,22-16.6,8.2-28.7,8.2-22.2-3-30-8.9-10.5-11.3-10.5-18,1.8-13.9,5.5-18.5L32,202.9a40.3,40.3,0,0,0-18.9,10c-5.9,5.6-8.9,11.9-9.1,18.9-.4,11.9,6.7,21.7,21.1,29.4s28.6,10.9,46.3,10.9,35.2-4.5,48.6-13.5a53.4,53.4,0,0,0,16-16.1,37.9,37.9,0,0,0,6-20.4c0-7.2-1.5-13.3-4.5-18.1s-7.8-10-14.4-15.4-22.3-13.5-47-24.6l-11.9-5.9C48,149.9,39.9,141,39.9,131.3q0-12,8.4-19.2a31.4,31.4,0,0,1,10.4-5.7c4.1-1.4,9.9-2.1,17.5-2.1s14.2,1.8,19.7,5.4,8.3,7.7,8.3,12.3-1.8,9.8-5.6,15.6Z" fill="url(#A)"/><path d="M301.8,238.4q-16.4,13.9-47.1,14c-32.8,0-50.8-19.9-54.2-59.9,37.7-.3,66-7,84.6-20.2q24-17,24-41.7c0-12.8-4.9-22.9-14.8-30.2s-24.7-11.7-43.2-11.7q-36.2,0-59.3,26.3t-23.3,67.6q0,39.6,21,63.8T250,271.5q40,0,60.2-24.8Zm-96.1-95.7a88.4,88.4,0,0,1,6.6-15,60,60,0,0,1,9.2-12.2,43.6,43.6,0,0,1,11.9-8.2,36,36,0,0,1,15.1-3,36.5,36.5,0,0,1,14.2,2.5c9.8,4.3,14.7,12.1,14.7,23.5,0,8.7-2.3,15.9-6.8,21.8q-18.5,23.7-70.6,24.8a116.2,116.2,0,0,1,5.7-34.2Z" fill="url(#B)"/><path d="M525.6,87.3q-37.7,0-59.4,29.1c-13.2,17.5-19.8,38.7-19.8,63.4s7.1,45.5,21.2,63.3q22.9,28.9,58.9,29c25.1,0,45.1-9.6,60.1-28.6S609,198.4,609,165.6q0-62.5-30.5-104.8Q544.6,14,477.3,4l-3.1,12.9q68.3,15,91,82.5c-10.8-8-24-12.1-39.6-12.1Zm40.9,143.8a42.8,42.8,0,0,1-14.8,18.1c-6.3,4.4-14.3,6.6-23.9,6.6s-17.5-2.3-23.5-6.9q-24.4-18.6-24.4-68.7c0-22.5,3.4-40.3,10-53.2,8-15.9,20.9-23.8,38.5-23.8q47.3,0,47.2,66,0,41.9-9.1,61.9Z" fill="url(#C)"/><path d="M758.7,151.2c7.4-2,14.2-6.3,20.2-12.7s9.7-14.2,9.7-22.1c0-9.9-4.9-17.2-14.8-21.9A57.5,57.5,0,0,0,758.3,90a113.2,113.2,0,0,0-17.1-1.3c-5.5,0-12.7.4-21.5,1.1l-12,1.1c-5.1.5-13.6.7-25.6.7H651.8V104a64.6,64.6,0,0,1,12,2.4,16.3,16.3,0,0,1,7.7,5.3c2.1,2.5,3.1,9.1,3.1,19.7V233a57.2,57.2,0,0,1-.8,11.2,13.1,13.1,0,0,1-4.2,7.3c-2.3,2.1-9.2,3.7-20.8,4.9h-.3v12.1h97.9V256.4c-18.4-.6-30.1-2.4-35.2-5.3a10.9,10.9,0,0,1-5.6-6.6,37.6,37.6,0,0,1-1.2-10.4V122.8c0-12.1,9.2-18.2,27.8-18.2,8.6,0,15,1.3,19.2,3.7s7.4,7.2,7.4,12.4c0,10.8-2.7,18.8-8.2,24.1Z" fill="url(#D)"/><path d="M420.4,180.7l-30-30V119.4l30-30-40-40-40,40,30,30v31.3l-30,30,30,30v30l-30,30,40,40,40-40-30-30v-30Zm-55-90,15-15,15,15-15,15Zm30,180-15,15-15-15,15-15Zm-15-75-15-15,15-15,15,15Z" fill-rule="evenodd" fill="url(#E)"/></g></svg>
